<svg width="20" height="20" viewBox="0 0 20 20" fill="none" xmlns="http://www.w3.org/2000/svg">
<g clip-path="url(#clip0_4023_7411)">
<mask id="mask0_4023_7411" style="mask-type:luminance" maskUnits="userSpaceOnUse" x="0" y="0" width="20" height="20">
<path d="M0 0H20V20H0V0Z" fill="white"/>
</mask>
<g mask="url(#mask0_4023_7411)">
<path fill-rule="evenodd" clip-rule="evenodd" d="M9.99881 -1.27408e-05C10.0356 -0.00175903 10.0723 0.00640364 10.1049 0.023625C10.1375 0.0408465 10.1649 0.0664966 10.1842 0.0979039L16.333 10.0308C16.3475 10.0544 16.3572 10.0806 16.3614 10.1079C16.3656 10.1353 16.3643 10.1632 16.3575 10.19C16.3507 10.2169 16.3386 10.242 16.3218 10.2641C16.3051 10.2861 16.2841 10.3046 16.2601 10.3183L10.1109 13.8375C10.0767 13.8569 10.0377 13.8662 9.99839 13.8642C9.95912 13.8662 9.92008 13.8569 9.88589 13.8375L3.73756 10.3183C3.71354 10.3046 3.69254 10.2861 3.6758 10.2641C3.65906 10.242 3.64692 10.2169 3.64012 10.19C3.63331 10.1632 3.63198 10.1353 3.63619 10.1079C3.64041 10.0806 3.65008 10.0544 3.66464 10.0308L9.81298 0.0974873C9.83244 0.0661703 9.85995 0.0406454 9.89264 0.0235708C9.92532 0.00649611 9.96198 -0.00150388 9.99881 0.000403926V-1.27408e-05ZM16.2405 11.1854C16.2723 11.2203 16.2911 11.2652 16.2939 11.3123C16.2966 11.3595 16.283 11.4062 16.2555 11.4446L10.1763 19.9142C10.1562 19.9421 10.1294 19.9645 10.0984 19.9794C10.0674 19.9943 10.0332 20.0013 9.99881 19.9996C9.96438 20.0013 9.93005 19.9944 9.89897 19.9795C9.86789 19.9646 9.84105 19.9421 9.82089 19.9142L3.74172 11.4446C3.71416 11.4062 3.70061 11.3595 3.70335 11.3123C3.70609 11.2651 3.72494 11.2203 3.75676 11.1854C3.78857 11.1505 3.83142 11.1275 3.87814 11.1204C3.92486 11.1132 3.9726 11.1224 4.01339 11.1462L9.99881 14.6462L15.9838 11.1462C16.0246 11.1224 16.0724 11.1132 16.1191 11.1204C16.1658 11.1275 16.2087 11.1505 16.2405 11.1854Z" fill="#1616B4"/>
<path d="M9.78216 19.1526L4.64258 11.9922L9.78216 14.998V19.1526Z" fill="#F0CDC2"/>
<path d="M10.2148 19.1525V14.9979L15.354 11.9917L10.2148 19.1525Z" fill="#C9B3F5"/>
<path d="M9.78193 13.3021L4.29443 10.1617L9.78193 7.70459V13.3021Z" fill="#88AAF1"/>
<path d="M10.2148 13.3021V7.70459L15.7023 10.1617L10.2148 13.3021Z" fill="#C9B3F5"/>
<path d="M9.78247 7.25247L4.36914 9.67622L9.78247 0.931641V7.25247Z" fill="#F0CDC2"/>
<path d="M10.2148 7.25247V0.931641L15.6282 9.67622L10.2148 7.25247Z" fill="#B8FAF6"/>
</g>
</g>
<defs>
<clipPath id="clip0_4023_7411">
<rect width="20" height="20" fill="white"/>
</clipPath>
</defs>
</svg>
