<svg width="20" height="20" viewBox="0 0 20 20" fill="none" xmlns="http://www.w3.org/2000/svg">
<g clip-path="url(#clip0_3898_9215)">
<path d="M12.4118 9.16407L13.8789 6.67157L17.838 12.8382V14.0232L17.8251 5.88032C17.8204 5.78215 17.7921 5.68656 17.7428 5.60158C17.6934 5.5166 17.6243 5.44472 17.5414 5.39199L10.4168 1.28949C10.3316 1.24909 10.2385 1.22833 10.1442 1.22877C10.05 1.2292 9.957 1.25081 9.87221 1.29199C9.85036 1.3032 9.82921 1.31572 9.80887 1.32949L9.78387 1.34491L2.86512 5.35407L2.83846 5.36657C2.73723 5.41268 2.65047 5.48548 2.58748 5.57717C2.5245 5.66885 2.48767 5.77596 2.48096 5.88699L2.49179 12.5224L6.17971 6.80699C6.64387 6.04907 7.65554 5.80491 8.59471 5.81824L9.69679 5.84741L3.20221 16.262L3.96804 16.7024L10.5393 5.85824L13.4443 5.84741L6.88887 16.9653L9.61971 18.5366L9.94596 18.7241C10.0868 18.7799 10.243 18.7828 10.386 18.7324L17.6139 14.5441L16.2318 15.3449L12.4118 9.16407ZM12.9722 17.2349L10.2122 12.9053L11.8964 10.047L15.5197 15.7582L12.9722 17.2349Z" fill="#2D374B"/>
<path d="M10.2129 12.9043L12.9716 17.2343L15.5204 15.7572L11.8962 10.0476L10.2129 12.9043ZM17.8412 14.0209V12.8359L13.8821 6.66968L12.4133 9.16176L16.235 15.343L17.6171 14.5422C17.6838 14.4881 17.7384 14.4207 17.7774 14.3442C17.8164 14.2676 17.8388 14.1838 17.8433 14.098L17.8412 14.0209Z" fill="#28A0F0"/>
<path d="M1.25115 15.1376L3.2024 16.2622L9.69615 5.84804L8.59407 5.81887C7.6549 5.80554 6.64323 6.04971 6.17907 6.80804L2.49157 12.5235L1.25073 14.4297V15.138L1.25115 15.1376ZM13.4445 5.84762L10.5395 5.85846L3.96823 16.7022L6.26407 18.0251L6.88907 16.9655L13.4445 5.84762Z" fill="white"/>
<path d="M19.065 5.83246C19.0516 5.53272 18.9656 5.24072 18.8143 4.9816C18.6631 4.72248 18.4511 4.504 18.1967 4.34496L10.9746 0.192463C10.7168 0.0658407 10.4334 0 10.1463 0C9.85906 0 9.57569 0.0658407 9.31792 0.192463C9.2575 0.222879 2.29542 4.2608 2.29542 4.2608C1.99656 4.40435 1.74181 4.62566 1.55788 4.90152C1.37395 5.17737 1.26761 5.49763 1.25 5.82871V14.4279L2.49083 12.5216L2.48 5.8858C2.48542 5.79472 2.51118 5.70601 2.55538 5.62619C2.59958 5.54638 2.6611 5.47747 2.73542 5.42455C2.76875 5.40121 9.84917 1.30205 9.87167 1.29121C9.95649 1.24993 10.0495 1.22823 10.1438 1.22773C10.2382 1.22722 10.3314 1.24792 10.4167 1.2883L17.545 5.39121C17.6279 5.44397 17.6969 5.51586 17.7462 5.60084C17.7955 5.68582 17.8237 5.78141 17.8283 5.87955V14.0983C17.8264 14.1832 17.8064 14.2666 17.7698 14.3432C17.7331 14.4198 17.6807 14.4877 17.6158 14.5425L16.2338 15.3433L15.5208 15.7566L12.9721 17.2337L10.3879 18.7325C10.2451 18.783 10.0887 18.78 9.94792 18.7241L6.89 16.965L6.265 18.0245L9.01333 19.6066L9.25167 19.7416C9.35458 19.7991 9.42458 19.8375 9.44917 19.85C9.6791 19.9507 9.92771 20.0018 10.1788 20C10.4092 20 10.6375 19.957 10.8521 19.8729L18.3583 15.5262C18.57 15.3614 18.743 15.1522 18.8651 14.9134C18.9871 14.6745 19.0554 14.4118 19.065 14.1437V5.83246Z" fill="#96BEDC"/>
</g>
<defs>
<clipPath id="clip0_3898_9215">
<rect width="20" height="20" fill="white"/>
</clipPath>
</defs>
</svg>
