<svg width="20" height="20" viewBox="0 0 20 20" fill="none" xmlns="http://www.w3.org/2000/svg">
<path d="M15.0921 6.51463C14.7233 6.28713 14.2437 6.28713 13.8379 6.51463L10.9592 8.25672L9.00375 9.39297L6.12542 11.135C5.75625 11.3625 5.27667 11.3625 4.87083 11.135L2.58333 9.77213C2.21417 9.54505 1.95583 9.12838 1.95583 8.6738V5.98463C1.95583 5.53047 2.17708 5.1138 2.58292 4.8863L4.83375 3.56088C5.20292 3.33338 5.6825 3.33338 6.08875 3.56088L8.33958 4.8863C8.70833 5.1138 8.96667 5.53005 8.96667 5.98463V7.72713L10.9225 6.55297V4.81047C10.9225 4.3563 10.7012 3.93963 10.2954 3.71213L6.125 1.21255C5.75583 0.985465 5.27625 0.985465 4.87042 1.21255L0.627083 3.71255C0.220833 3.9388 0 4.35547 0 4.80963V9.84713C0 10.3013 0.22125 10.718 0.6275 10.9455L4.87083 13.4455C5.24 13.6726 5.71958 13.6726 6.12542 13.4455L9.00375 11.7409L10.9592 10.5667L13.8375 8.86255C14.2067 8.63505 14.6862 8.63505 15.0921 8.86255L17.3433 10.188C17.7121 10.415 17.9704 10.8317 17.9704 11.2863V13.9755C17.9704 14.4296 17.7492 14.8463 17.3433 15.0738L15.0917 16.4375C14.7229 16.665 14.2433 16.665 13.8375 16.4375L11.5862 15.1121C11.2171 14.885 10.9587 14.4684 10.9587 14.0138V12.2709L9.00417 13.4459V15.1884C9.00417 15.6425 9.22542 16.0592 9.63125 16.2867L13.875 18.7867C14.2442 19.0134 14.7238 19.0134 15.1292 18.7867L19.3733 16.2867C19.7417 16.0584 20 15.6417 20 15.1875V10.15C20 9.69588 19.7787 9.27922 19.3729 9.05172L15.0921 6.51422V6.51463Z" fill="#7B3FE4"/>
</svg>
