<svg width="512" height="640" viewBox="0 0 512 640" fill="none" xmlns="http://www.w3.org/2000/svg">
<path d="M189.157 7.15657C190.629 5.68507 193.015 5.68507 194.486 7.15657L228.676 41.346C229.811 42.481 230.102 44.2103 229.402 45.6544L191.822 123.155L154.242 45.6544C153.542 44.2102 153.833 42.481 154.968 41.346L189.157 7.15657Z" fill="url(#paint0_linear_5841_14449)"/>
<path d="M193.154 8.48877L227.343 42.6782C227.911 43.2457 228.057 44.1103 227.706 44.8324L191.822 118.837L155.937 44.8324C155.587 44.1103 155.733 43.2457 156.3 42.6782L190.49 8.48877C191.225 7.75302 192.418 7.75302 193.154 8.48877Z" stroke="white" stroke-opacity="0.2" stroke-width="3.76801"/>
<path d="M179.6 73.0352V69.1014L192.17 57.1643C193.225 56.1695 194.009 55.2954 194.522 54.5418C195.034 53.7882 195.366 53.0948 195.516 52.4618C195.697 51.7986 195.788 51.1807 195.788 50.608C195.788 49.161 195.29 48.0457 194.295 47.262C193.301 46.4481 191.839 46.0411 189.91 46.0411C188.372 46.0411 186.97 46.3124 185.704 46.855C184.469 47.3976 183.398 48.2266 182.494 49.3419L178.379 46.1768C179.615 44.5189 181.273 43.2377 183.353 42.3334C185.463 41.3989 187.814 40.9317 190.407 40.9317C192.698 40.9317 194.687 41.3085 196.375 42.0621C198.094 42.7856 199.405 43.8255 200.309 45.182C201.244 46.5385 201.711 48.1512 201.711 50.0201C201.711 51.045 201.575 52.0699 201.304 53.0948C201.033 54.0896 200.52 55.1446 199.767 56.26C199.013 57.3753 197.913 58.6263 196.466 60.0129L185.659 70.277L184.438 68.0614H202.932V73.0352H179.6Z" fill="black"/>
<path d="M189.158 134.682C190.63 133.21 193.016 133.21 194.487 134.682L228.677 168.871C229.812 170.006 230.103 171.736 229.403 173.18L191.823 250.68L154.243 173.18C153.543 171.736 153.834 170.006 154.969 168.871L189.158 134.682Z" fill="url(#paint1_linear_5841_14449)"/>
<path d="M193.155 136.014L227.344 170.204C227.912 170.771 228.058 171.636 227.707 172.358L191.823 246.362L155.938 172.358C155.588 171.636 155.734 170.771 156.301 170.204L190.491 136.014C191.226 135.278 192.419 135.278 193.155 136.014Z" stroke="white" stroke-opacity="0.2" stroke-width="3.76801"/>
<path d="M193.693 201.013C190.829 201.013 188.373 200.41 186.323 199.204C184.273 197.968 182.706 196.19 181.62 193.869C180.535 191.547 179.993 188.684 179.993 185.277C179.993 181.66 180.641 178.601 181.937 176.099C183.263 173.597 185.087 171.698 187.408 170.401C189.759 169.105 192.457 168.457 195.502 168.457C197.099 168.457 198.622 168.623 200.069 168.954C201.546 169.286 202.797 169.799 203.821 170.492L201.651 174.923C200.777 174.35 199.827 173.958 198.802 173.747C197.808 173.506 196.753 173.386 195.637 173.386C192.653 173.386 190.287 174.305 188.538 176.144C186.79 177.983 185.916 180.696 185.916 184.283C185.916 184.855 185.931 185.534 185.961 186.317C185.991 187.071 186.097 187.84 186.278 188.623L184.469 186.634C185.012 185.398 185.75 184.373 186.685 183.559C187.649 182.715 188.78 182.082 190.076 181.66C191.402 181.238 192.834 181.027 194.371 181.027C196.451 181.027 198.305 181.434 199.933 182.248C201.561 183.032 202.857 184.162 203.821 185.639C204.786 187.086 205.268 188.789 205.268 190.749C205.268 192.829 204.756 194.637 203.731 196.175C202.706 197.712 201.32 198.903 199.571 199.747C197.823 200.591 195.863 201.013 193.693 201.013ZM193.377 196.401C194.582 196.401 195.652 196.19 196.587 195.768C197.521 195.315 198.245 194.682 198.757 193.869C199.3 193.055 199.571 192.105 199.571 191.02C199.571 189.362 198.998 188.051 197.853 187.086C196.707 186.122 195.17 185.639 193.241 185.639C191.975 185.639 190.86 185.88 189.895 186.363C188.96 186.815 188.207 187.448 187.634 188.262C187.091 189.076 186.82 190.01 186.82 191.065C186.82 192.03 187.076 192.919 187.589 193.733C188.101 194.547 188.84 195.195 189.804 195.677C190.799 196.16 191.99 196.401 193.377 196.401Z" fill="black"/>
<path d="M189.158 266.7C190.63 265.228 193.016 265.228 194.487 266.7L228.677 300.889C229.812 302.024 230.103 303.753 229.403 305.197L191.823 382.698L154.243 305.197C153.543 303.753 153.834 302.024 154.969 300.889L189.158 266.7Z" fill="url(#paint2_linear_5841_14449)"/>
<path d="M193.155 268.032L227.344 302.221C227.912 302.789 228.058 303.653 227.707 304.375L191.823 378.38L155.938 304.375C155.588 303.653 155.734 302.789 156.301 302.221L190.491 268.032C191.226 267.296 192.419 267.296 193.155 268.032Z" stroke="white" stroke-opacity="0.2" stroke-width="3.76801"/>
<path d="M171.908 321.035V298.992L173.841 300.993H166.889V297.297H176.317V321.035H171.908ZM189.233 321.374C187.356 321.374 185.661 320.9 184.146 319.95C182.654 319 181.478 317.621 180.619 315.813C179.76 313.981 179.33 311.766 179.33 309.166C179.33 306.566 179.76 304.362 180.619 302.553C181.478 300.722 182.654 299.331 184.146 298.382C185.661 297.432 187.356 296.958 189.233 296.958C191.132 296.958 192.827 297.432 194.32 298.382C195.812 299.331 196.987 300.722 197.846 302.553C198.728 304.362 199.169 306.566 199.169 309.166C199.169 311.766 198.728 313.981 197.846 315.813C196.987 317.621 195.812 319 194.32 319.95C192.827 320.9 191.132 321.374 189.233 321.374ZM189.233 317.542C190.341 317.542 191.301 317.248 192.115 316.66C192.929 316.05 193.562 315.123 194.014 313.88C194.489 312.636 194.727 311.065 194.727 309.166C194.727 307.244 194.489 305.673 194.014 304.452C193.562 303.209 192.929 302.293 192.115 301.705C191.301 301.095 190.341 300.79 189.233 300.79C188.17 300.79 187.221 301.095 186.384 301.705C185.57 302.293 184.926 303.209 184.451 304.452C183.999 305.673 183.773 307.244 183.773 309.166C183.773 311.065 183.999 312.636 184.451 313.88C184.926 315.123 185.57 316.05 186.384 316.66C187.221 317.248 188.17 317.542 189.233 317.542ZM207.333 316.796V301.536H210.961V316.796H207.333ZM201.33 310.862V307.47H216.964V310.862H201.33Z" fill="black"/>
<path d="M189.158 394.227C190.63 392.755 193.016 392.755 194.487 394.227L228.677 428.416C229.812 429.551 230.103 431.281 229.403 432.725L191.823 510.225L154.243 432.725C153.543 431.281 153.834 429.551 154.969 428.416L189.158 394.227Z" fill="url(#paint3_linear_5841_14449)"/>
<path d="M193.155 395.559L227.344 429.749C227.912 430.316 228.058 431.181 227.707 431.903L191.823 505.907L155.938 431.903C155.588 431.181 155.734 430.316 156.301 429.749L190.491 395.559C191.226 394.823 192.419 394.823 193.155 395.559Z" stroke="white" stroke-opacity="0.2" stroke-width="3.76801"/>
<path d="M172.264 448.902C170.591 448.902 168.952 448.664 167.347 448.189C165.764 447.692 164.43 447.014 163.345 446.155L165.21 442.73C166.07 443.43 167.11 443.996 168.33 444.425C169.574 444.855 170.862 445.07 172.196 445.07C173.756 445.07 174.977 444.742 175.859 444.086C176.763 443.43 177.215 442.549 177.215 441.441C177.215 440.695 177.023 440.039 176.639 439.474C176.277 438.909 175.621 438.479 174.672 438.185C173.745 437.891 172.468 437.745 170.84 437.745H165.109L166.33 424.824H180.267V428.52H167.957L170.263 426.418L169.348 436.083L167.042 434.014H171.823C174.175 434.014 176.062 434.331 177.487 434.964C178.934 435.574 179.985 436.433 180.64 437.541C181.319 438.626 181.658 439.87 181.658 441.271C181.658 442.65 181.319 443.917 180.64 445.07C179.962 446.223 178.922 447.149 177.521 447.85C176.141 448.551 174.389 448.902 172.264 448.902ZM192.407 448.902C190.531 448.902 188.835 448.427 187.321 447.477C185.828 446.528 184.653 445.149 183.794 443.34C182.935 441.509 182.505 439.293 182.505 436.693C182.505 434.093 182.935 431.889 183.794 430.08C184.653 428.249 185.828 426.859 187.321 425.909C188.835 424.96 190.531 424.485 192.407 424.485C194.306 424.485 196.002 424.96 197.494 425.909C198.986 426.859 200.162 428.249 201.021 430.08C201.903 431.889 202.344 434.093 202.344 436.693C202.344 439.293 201.903 441.509 201.021 443.34C200.162 445.149 198.986 446.528 197.494 447.477C196.002 448.427 194.306 448.902 192.407 448.902ZM192.407 445.07C193.515 445.07 194.476 444.776 195.29 444.188C196.104 443.577 196.737 442.65 197.189 441.407C197.664 440.164 197.901 438.592 197.901 436.693C197.901 434.772 197.664 433.2 197.189 431.979C196.737 430.736 196.104 429.82 195.29 429.233C194.476 428.622 193.515 428.317 192.407 428.317C191.345 428.317 190.395 428.622 189.559 429.233C188.745 429.82 188.101 430.736 187.626 431.979C187.174 433.2 186.948 434.772 186.948 436.693C186.948 438.592 187.174 440.164 187.626 441.407C188.101 442.65 188.745 443.577 189.559 444.188C190.395 444.776 191.345 445.07 192.407 445.07ZM210.507 444.323V429.063H214.136V444.323H210.507ZM204.505 438.389V434.998H220.139V438.389H204.505Z" fill="black"/>
<path d="M189.158 521.752C190.63 520.281 193.016 520.281 194.487 521.752L228.677 555.942C229.812 557.077 230.103 558.806 229.403 560.25L191.823 637.751L154.243 560.25C153.543 558.806 153.834 557.077 154.969 555.942L189.158 521.752Z" fill="url(#paint4_linear_5841_14449)"/>
<path d="M193.155 523.084L227.344 557.274C227.912 557.841 228.058 558.706 227.707 559.428L191.823 633.433L155.938 559.428C155.588 558.706 155.734 557.841 156.301 557.274L190.491 523.084C191.226 522.349 192.419 522.349 193.155 523.084Z" stroke="white" stroke-opacity="0.2" stroke-width="3.76801"/>
<path d="M172.171 552.01C174.342 552.01 176.184 552.474 177.699 553.401C179.236 554.305 180.412 555.628 181.226 557.368C182.04 559.109 182.447 561.257 182.447 563.812C182.447 566.525 181.949 568.819 180.954 570.696C179.982 572.572 178.626 573.997 176.885 574.969C175.144 575.941 173.121 576.427 170.815 576.427C169.617 576.427 168.475 576.303 167.39 576.054C166.304 575.805 165.366 575.421 164.575 574.901L166.203 571.578C166.858 572.007 167.57 572.312 168.339 572.493C169.108 572.651 169.899 572.731 170.713 572.731C172.951 572.731 174.726 572.041 176.037 570.662C177.348 569.283 178.004 567.248 178.004 564.558C178.004 564.128 177.993 563.631 177.97 563.066C177.948 562.478 177.868 561.89 177.733 561.302L179.089 562.794C178.705 563.721 178.151 564.501 177.428 565.134C176.704 565.745 175.856 566.208 174.884 566.525C173.912 566.841 172.838 566.999 171.663 566.999C170.125 566.999 168.735 566.706 167.491 566.118C166.271 565.507 165.298 564.66 164.575 563.574C163.851 562.467 163.49 561.178 163.49 559.708C163.49 558.126 163.874 556.769 164.643 555.639C165.411 554.486 166.451 553.593 167.763 552.96C169.097 552.327 170.566 552.01 172.171 552.01ZM172.409 555.469C171.504 555.469 170.702 555.639 170.001 555.978C169.3 556.295 168.746 556.758 168.339 557.368C167.955 557.956 167.763 558.668 167.763 559.505C167.763 560.748 168.192 561.732 169.051 562.455C169.91 563.179 171.063 563.54 172.51 563.54C173.46 563.54 174.296 563.371 175.02 563.032C175.743 562.67 176.309 562.184 176.715 561.574C177.122 560.94 177.326 560.24 177.326 559.471C177.326 558.725 177.134 558.058 176.749 557.47C176.365 556.86 175.811 556.374 175.088 556.012C174.364 555.65 173.471 555.469 172.409 555.469ZM193.636 576.427C191.76 576.427 190.064 575.952 188.549 575.003C187.057 574.053 185.881 572.674 185.022 570.865C184.163 569.034 183.734 566.819 183.734 564.219C183.734 561.619 184.163 559.414 185.022 557.606C185.881 555.775 187.057 554.384 188.549 553.435C190.064 552.485 191.76 552.01 193.636 552.01C195.535 552.01 197.231 552.485 198.723 553.435C200.215 554.384 201.391 555.775 202.25 557.606C203.131 559.414 203.572 561.619 203.572 564.219C203.572 566.819 203.131 569.034 202.25 570.865C201.391 572.674 200.215 574.053 198.723 575.003C197.231 575.952 195.535 576.427 193.636 576.427ZM193.636 572.595C194.744 572.595 195.705 572.301 196.519 571.713C197.332 571.103 197.965 570.176 198.418 568.932C198.892 567.689 199.13 566.118 199.13 564.219C199.13 562.297 198.892 560.726 198.418 559.505C197.965 558.261 197.332 557.346 196.519 556.758C195.705 556.148 194.744 555.842 193.636 555.842C192.573 555.842 191.624 556.148 190.787 556.758C189.973 557.346 189.329 558.261 188.854 559.505C188.402 560.726 188.176 562.297 188.176 564.219C188.176 566.118 188.402 567.689 188.854 568.932C189.329 570.176 189.973 571.103 190.787 571.713C191.624 572.301 192.573 572.595 193.636 572.595ZM211.736 571.849V556.588H215.365V571.849H211.736ZM205.734 565.914V562.523H221.367V565.914H205.734Z" fill="black"/>
<path d="M445.158 7.15657C446.629 5.68507 449.015 5.68507 450.487 7.15657L484.676 41.346C485.811 42.481 486.102 44.2103 485.402 45.6544L447.822 123.155L410.242 45.6544C409.542 44.2102 409.833 42.481 410.968 41.346L445.158 7.15657Z" fill="url(#paint5_linear_5841_14449)"/>
<path d="M449.154 8.48877L483.344 42.6782C483.911 43.2457 484.057 44.1103 483.707 44.8324L447.822 118.837L411.938 44.8324C411.587 44.1103 411.733 43.2457 412.301 42.6782L446.49 8.48877C447.226 7.75302 448.419 7.75302 449.154 8.48877Z" stroke="white" stroke-opacity="0.2" stroke-width="3.76801"/>
<path d="M431.602 65.8458V61.7763L447.202 41.3839H453.487L438.113 61.7763L435.174 60.872H460.269V65.8458H431.602ZM448.965 73.0352V65.8458L449.146 60.872V54.4965H454.662V73.0352H448.965Z" fill="black"/>
<path d="M445.158 134.682C446.63 133.21 449.016 133.21 450.487 134.682L484.677 168.871C485.812 170.006 486.103 171.736 485.403 173.18L447.823 250.68L410.243 173.18C409.543 171.736 409.834 170.006 410.969 168.871L445.158 134.682Z" fill="url(#paint6_linear_5841_14449)"/>
<path d="M449.155 136.014L483.344 170.204C483.912 170.771 484.058 171.636 483.707 172.358L447.823 246.362L411.938 172.358C411.588 171.636 411.734 170.771 412.301 170.204L446.491 136.014C447.226 135.278 448.419 135.278 449.155 136.014Z" stroke="white" stroke-opacity="0.2" stroke-width="3.76801"/>
<path d="M448.624 201.013C446.002 201.013 443.726 200.621 441.797 199.837C439.867 199.053 438.375 197.953 437.32 196.536C436.265 195.089 435.738 193.401 435.738 191.472C435.738 189.543 436.25 187.915 437.275 186.589C438.3 185.262 439.777 184.253 441.706 183.559C443.635 182.866 445.941 182.519 448.624 182.519C451.307 182.519 453.613 182.866 455.542 183.559C457.502 184.253 458.994 185.277 460.019 186.634C461.074 187.96 461.601 189.573 461.601 191.472C461.601 193.401 461.059 195.089 459.974 196.536C458.918 197.953 457.411 199.053 455.452 199.837C453.523 200.621 451.247 201.013 448.624 201.013ZM448.624 196.401C450.795 196.401 452.513 195.949 453.779 195.044C455.045 194.14 455.678 192.889 455.678 191.291C455.678 189.724 455.045 188.488 453.779 187.584C452.513 186.679 450.795 186.227 448.624 186.227C446.454 186.227 444.751 186.679 443.515 187.584C442.279 188.488 441.661 189.724 441.661 191.291C441.661 192.889 442.279 194.14 443.515 195.044C444.751 195.949 446.454 196.401 448.624 196.401ZM448.624 185.594C446.183 185.594 444.088 185.277 442.339 184.644C440.591 183.981 439.234 183.032 438.27 181.796C437.335 180.53 436.868 179.023 436.868 177.274C436.868 175.466 437.35 173.913 438.315 172.617C439.31 171.291 440.696 170.266 442.475 169.542C444.253 168.819 446.303 168.457 448.624 168.457C450.975 168.457 453.04 168.819 454.819 169.542C456.597 170.266 457.984 171.291 458.979 172.617C459.974 173.913 460.471 175.466 460.471 177.274C460.471 179.023 459.989 180.53 459.024 181.796C458.09 183.032 456.733 183.981 454.955 184.644C453.176 185.277 451.066 185.594 448.624 185.594ZM448.624 181.977C450.493 181.977 451.97 181.585 453.055 180.801C454.141 179.987 454.683 178.902 454.683 177.546C454.683 176.129 454.126 175.029 453.01 174.245C451.895 173.461 450.433 173.069 448.624 173.069C446.816 173.069 445.369 173.461 444.284 174.245C443.198 175.029 442.656 176.129 442.656 177.546C442.656 178.902 443.183 179.987 444.238 180.801C445.323 181.585 446.785 181.977 448.624 181.977Z" fill="black"/>
<path d="M445.158 266.7C446.63 265.228 449.016 265.228 450.487 266.7L484.677 300.889C485.812 302.024 486.103 303.753 485.403 305.197L447.823 382.698L410.243 305.197C409.543 303.753 409.834 302.024 410.969 300.889L445.158 266.7Z" fill="url(#paint7_linear_5841_14449)"/>
<path d="M449.155 268.032L483.344 302.221C483.912 302.789 484.058 303.653 483.707 304.375L447.823 378.38L411.938 304.375C411.588 303.653 411.734 302.789 412.301 302.221L446.491 268.032C447.226 267.296 448.419 267.296 449.155 268.032Z" stroke="white" stroke-opacity="0.2" stroke-width="3.76801"/>
<path d="M427.892 321.374C426.219 321.374 424.58 321.137 422.975 320.662C421.392 320.165 420.059 319.487 418.973 318.627L420.872 315.202C421.732 315.903 422.772 316.468 423.992 316.898C425.213 317.327 426.491 317.542 427.824 317.542C429.407 317.542 430.639 317.226 431.521 316.593C432.403 315.937 432.843 315.055 432.843 313.948C432.843 312.862 432.437 312.003 431.623 311.37C430.809 310.737 429.497 310.421 427.689 310.421H425.518V307.402L432.301 299.331L432.877 300.993H420.126V297.297H436.302V300.247L429.52 308.318L427.214 306.962H428.537C431.453 306.962 433.635 307.617 435.082 308.929C436.551 310.217 437.286 311.879 437.286 313.914C437.286 315.247 436.947 316.48 436.269 317.61C435.59 318.74 434.55 319.656 433.149 320.357C431.77 321.035 430.017 321.374 427.892 321.374ZM448.376 321.374C446.5 321.374 444.804 320.9 443.289 319.95C441.797 319 440.622 317.621 439.763 315.813C438.903 313.981 438.474 311.766 438.474 309.166C438.474 306.566 438.903 304.362 439.763 302.553C440.622 300.722 441.797 299.331 443.289 298.382C444.804 297.432 446.5 296.958 448.376 296.958C450.275 296.958 451.971 297.432 453.463 298.382C454.955 299.331 456.131 300.722 456.99 302.553C457.872 304.362 458.312 306.566 458.312 309.166C458.312 311.766 457.872 313.981 456.99 315.813C456.131 317.621 454.955 319 453.463 319.95C451.971 320.9 450.275 321.374 448.376 321.374ZM448.376 317.542C449.484 317.542 450.445 317.248 451.259 316.66C452.073 316.05 452.706 315.123 453.158 313.88C453.633 312.636 453.87 311.065 453.87 309.166C453.87 307.244 453.633 305.673 453.158 304.452C452.706 303.209 452.073 302.293 451.259 301.705C450.445 301.095 449.484 300.79 448.376 300.79C447.314 300.79 446.364 301.095 445.528 301.705C444.714 302.293 444.069 303.209 443.595 304.452C443.142 305.673 442.916 307.244 442.916 309.166C442.916 311.065 443.142 312.636 443.595 313.88C444.069 315.123 444.714 316.05 445.528 316.66C446.364 317.248 447.314 317.542 448.376 317.542ZM466.476 316.796V301.536H470.105V316.796H466.476ZM460.474 310.862V307.47H476.107V310.862H460.474Z" fill="black"/>
<path d="M445.158 394.227C446.63 392.755 449.016 392.755 450.487 394.227L484.677 428.416C485.812 429.551 486.103 431.281 485.403 432.725L447.823 510.225L410.243 432.725C409.543 431.281 409.834 429.551 410.969 428.416L445.158 394.227Z" fill="url(#paint8_linear_5841_14449)"/>
<path d="M449.155 395.559L483.344 429.749C483.912 430.316 484.058 431.181 483.707 431.903L447.823 505.907L411.938 431.903C411.588 431.181 411.734 430.316 412.301 429.749L446.491 395.559C447.226 394.823 448.419 394.823 449.155 395.559Z" stroke="white" stroke-opacity="0.2" stroke-width="3.76801"/>
<path d="M424.281 448.562L434.082 426.587L435.235 428.554H421.772L423.875 426.418V432.59H419.771V424.824H438.219V427.774L428.995 448.562H424.281ZM448.49 448.902C446.614 448.902 444.918 448.427 443.403 447.477C441.911 446.528 440.736 445.149 439.877 443.34C439.017 441.509 438.588 439.293 438.588 436.693C438.588 434.093 439.017 431.889 439.877 430.08C440.736 428.249 441.911 426.859 443.403 425.909C444.918 424.96 446.614 424.485 448.49 424.485C450.389 424.485 452.085 424.96 453.577 425.909C455.069 426.859 456.245 428.249 457.104 430.08C457.986 431.889 458.426 434.093 458.426 436.693C458.426 439.293 457.986 441.509 457.104 443.34C456.245 445.149 455.069 446.528 453.577 447.477C452.085 448.427 450.389 448.902 448.49 448.902ZM448.49 445.07C449.598 445.07 450.559 444.776 451.373 444.188C452.187 443.577 452.82 442.65 453.272 441.407C453.747 440.164 453.984 438.592 453.984 436.693C453.984 434.772 453.747 433.2 453.272 431.979C452.82 430.736 452.187 429.82 451.373 429.233C450.559 428.622 449.598 428.317 448.49 428.317C447.428 428.317 446.478 428.622 445.642 429.233C444.828 429.82 444.183 430.736 443.709 431.979C443.256 433.2 443.03 434.772 443.03 436.693C443.03 438.592 443.256 440.164 443.709 441.407C444.183 442.65 444.828 443.577 445.642 444.188C446.478 444.776 447.428 445.07 448.49 445.07ZM466.59 444.323V429.063H470.219V444.323H466.59ZM460.588 438.389V434.998H476.221V438.389H460.588Z" fill="black"/>
<path d="M445.158 521.752C446.63 520.281 449.016 520.281 450.487 521.752L484.677 555.942C485.812 557.077 486.103 558.806 485.403 560.25L447.823 637.751L410.243 560.25C409.543 558.806 409.834 557.077 410.969 555.942L445.158 521.752Z" fill="url(#paint9_linear_5841_14449)"/>
<path d="M449.155 523.084L483.344 557.274C483.912 557.841 484.058 558.706 483.707 559.428L447.823 633.433L411.938 559.428C411.588 558.706 411.734 557.841 412.301 557.274L446.491 523.084C447.226 522.349 448.419 522.349 449.155 523.084Z" stroke="white" stroke-opacity="0.2" stroke-width="3.76801"/>
<path d="M61.1593 7.15657C62.6308 5.68507 65.0166 5.68507 66.4881 7.15657L100.678 41.346C101.813 42.481 102.104 44.2103 101.404 45.6544L63.8237 123.155L26.2438 45.6544C25.5435 44.2102 25.835 42.481 26.9699 41.346L61.1593 7.15657Z" fill="url(#paint10_linear_5841_14449)"/>
<path d="M65.1559 8.48877L99.3454 42.6782C99.9129 43.2457 100.059 44.1103 99.7084 44.8324L63.8237 118.837L27.939 44.8324C27.5889 44.1103 27.7346 43.2457 28.3021 42.6782L62.4915 8.48877C63.2273 7.75302 64.4202 7.75302 65.1559 8.48877Z" stroke="white" stroke-opacity="0.2" stroke-width="3.76801"/>
<path d="M60.8905 73.0352V43.6447L63.4678 46.3124H54.1985V41.3839H66.7686V73.0352H60.8905Z" fill="black"/>
<path d="M61.1593 134.68C62.6308 133.209 65.0166 133.209 66.4881 134.68L100.678 168.869C101.813 170.004 102.104 171.734 101.404 173.178L63.8237 250.678L26.2438 173.178C25.5435 171.734 25.835 170.004 26.9699 168.869L61.1593 134.68Z" fill="url(#paint11_linear_5841_14449)"/>
<path d="M65.1559 136.012L99.3454 170.202C99.9129 170.769 100.059 171.634 99.7084 172.356L63.8237 246.36L27.939 172.356C27.5889 171.634 27.7346 170.769 28.3021 170.202L62.4915 136.012C63.2273 135.276 64.4202 135.276 65.1559 136.012Z" stroke="white" stroke-opacity="0.2" stroke-width="3.76801"/>
<path d="M62.4551 201.011C60.2245 201.011 58.039 200.694 55.8988 200.061C53.7887 199.398 52.0102 198.494 50.5633 197.348L53.0502 192.781C54.1956 193.716 55.5823 194.469 57.21 195.042C58.868 195.615 60.5862 195.901 62.3647 195.901C64.4446 195.901 66.0724 195.464 67.248 194.59C68.4538 193.716 69.0567 192.54 69.0567 191.063C69.0567 190.068 68.8004 189.194 68.288 188.441C67.8057 187.687 66.9315 187.114 65.6655 186.722C64.4296 186.331 62.7264 186.135 60.556 186.135H52.9145L54.5423 168.907H73.1261V173.836H56.7127L59.7874 171.032L58.5665 183.919L55.4918 181.161H61.8673C65.0023 181.161 67.5193 181.583 69.4184 182.427C71.3476 183.241 72.7493 184.386 73.6235 185.863C74.5278 187.31 74.98 188.968 74.98 190.837C74.98 192.676 74.5278 194.364 73.6235 195.901C72.7192 197.439 71.3326 198.675 69.4636 199.609C67.6248 200.544 65.2887 201.011 62.4551 201.011Z" fill="black"/>
<path d="M61.1584 266.7C62.6299 265.228 65.0156 265.228 66.4871 266.7L100.677 300.889C101.812 302.024 102.103 303.753 101.403 305.197L63.8228 382.698L26.2428 305.197C25.5426 303.753 25.834 302.024 26.9689 300.889L61.1584 266.7Z" fill="url(#paint12_linear_5841_14449)"/>
<path d="M65.1549 268.032L99.3444 302.221C99.9119 302.789 100.058 303.653 99.7074 304.375L63.8228 378.38L27.9381 304.375C27.5879 303.653 27.7336 302.789 28.3011 302.221L62.4906 268.032C63.2263 267.296 64.4192 267.296 65.1549 268.032Z" stroke="white" stroke-opacity="0.2" stroke-width="3.76801"/>
<path d="M62.6636 300.467C65.5574 300.467 68.0141 301.085 70.0338 302.321C72.0836 303.526 73.6511 305.29 74.7363 307.611C75.8215 309.932 76.3641 312.796 76.3641 316.202C76.3641 319.819 75.7009 322.879 74.3745 325.381C73.0783 327.883 71.2697 329.782 68.9486 331.078C66.6275 332.374 63.9296 333.022 60.8549 333.022C59.2573 333.022 57.735 332.857 56.2881 332.525C54.8412 332.194 53.5902 331.681 52.5352 330.988L54.7055 326.557C55.5797 327.129 56.5292 327.536 57.5541 327.777C58.579 327.988 59.6341 328.094 60.7193 328.094C63.7035 328.094 66.0698 327.175 67.8182 325.336C69.5666 323.497 70.4407 320.784 70.4407 317.197C70.4407 316.624 70.4257 315.961 70.3955 315.207C70.3654 314.424 70.2599 313.64 70.079 312.856L71.8877 314.846C71.3752 316.081 70.6367 317.121 69.6721 317.966C68.7075 318.779 67.5771 319.397 66.2809 319.819C64.9847 320.241 63.5528 320.452 61.9853 320.452C59.9355 320.452 58.0817 320.061 56.4237 319.277C54.796 318.463 53.4998 317.332 52.5352 315.886C51.5705 314.409 51.0882 312.69 51.0882 310.731C51.0882 308.621 51.6007 306.812 52.6256 305.305C53.6505 303.768 55.0371 302.577 56.7855 301.733C58.564 300.889 60.5233 300.467 62.6636 300.467ZM62.9801 305.079C61.7743 305.079 60.7042 305.305 59.7697 305.757C58.8353 306.179 58.0967 306.797 57.5541 307.611C57.0417 308.395 56.7855 309.344 56.7855 310.46C56.7855 312.118 57.3582 313.429 58.5037 314.393C59.6492 315.358 61.1865 315.84 63.1157 315.84C64.3818 315.84 65.4971 315.614 66.4617 315.162C67.4263 314.68 68.1799 314.032 68.7225 313.218C69.2651 312.374 69.5364 311.439 69.5364 310.414C69.5364 309.42 69.2802 308.53 68.7677 307.747C68.2553 306.933 67.5168 306.285 66.5522 305.802C65.5875 305.32 64.3969 305.079 62.9801 305.079Z" fill="black"/>
<path d="M61.1584 394.227C62.6299 392.755 65.0156 392.755 66.4871 394.227L100.677 428.416C101.812 429.551 102.103 431.281 101.403 432.725L63.8228 510.225L26.2428 432.725C25.5426 431.281 25.834 429.551 26.9689 428.416L61.1584 394.227Z" fill="url(#paint13_linear_5841_14449)"/>
<path d="M65.1549 395.559L99.3444 429.749C99.9119 430.316 100.058 431.181 99.7074 431.903L63.8228 505.907L27.9381 431.903C27.5879 431.181 27.7336 430.316 28.3011 429.749L62.4906 395.559C63.2263 394.823 64.4192 394.823 65.1549 395.559Z" stroke="white" stroke-opacity="0.2" stroke-width="3.76801"/>
<path d="M35.9513 443.17V440.118L47.6509 424.824H52.3647L40.8346 440.118L38.6303 439.44H57.4515V443.17H35.9513ZM48.9735 448.562V443.17L49.1091 439.44V434.659H53.2464V448.562H48.9735ZM67.5136 448.902C65.6371 448.902 63.9415 448.427 62.4268 447.477C60.9347 446.528 59.759 445.149 58.8999 443.34C58.0408 441.509 57.6113 439.293 57.6113 436.693C57.6113 434.093 58.0408 431.889 58.8999 430.08C59.759 428.249 60.9347 426.859 62.4268 425.909C63.9415 424.96 65.6371 424.485 67.5136 424.485C69.4127 424.485 71.1083 424.96 72.6004 425.909C74.0926 426.859 75.2682 428.249 76.1273 430.08C77.009 431.889 77.4499 434.093 77.4499 436.693C77.4499 439.293 77.009 441.509 76.1273 443.34C75.2682 445.149 74.0926 446.528 72.6004 447.477C71.1083 448.427 69.4127 448.902 67.5136 448.902ZM67.5136 445.07C68.6214 445.07 69.5822 444.776 70.3961 444.188C71.21 443.577 71.8431 442.65 72.2952 441.407C72.77 440.164 73.0074 438.592 73.0074 436.693C73.0074 434.772 72.77 433.2 72.2952 431.979C71.8431 430.736 71.21 429.82 70.3961 429.233C69.5822 428.622 68.6214 428.317 67.5136 428.317C66.451 428.317 65.5015 428.622 64.665 429.233C63.8511 429.82 63.2068 430.736 62.732 431.979C62.2798 433.2 62.0538 434.772 62.0538 436.693C62.0538 438.592 62.2798 440.164 62.732 441.407C63.2068 442.65 63.8511 443.577 64.665 444.188C65.5015 444.776 66.451 445.07 67.5136 445.07ZM85.6137 444.323V429.063H89.2422V444.323H85.6137ZM79.6112 438.389V434.998H95.2447V438.389H79.6112Z" fill="black"/>
<path d="M61.1584 521.752C62.6299 520.281 65.0156 520.281 66.4871 521.752L100.677 555.942C101.812 557.077 102.103 558.806 101.403 560.25L63.8228 637.751L26.2428 560.25C25.5426 558.806 25.834 557.077 26.9689 555.942L61.1584 521.752Z" fill="url(#paint14_linear_5841_14449)"/>
<path d="M65.1549 523.084L99.3444 557.274C99.9119 557.841 100.058 558.706 99.7074 559.428L63.8228 633.433L27.9381 559.428C27.5879 558.706 27.7336 557.841 28.3011 557.274L62.4906 523.084C63.2263 522.349 64.4192 522.349 65.1549 523.084Z" stroke="white" stroke-opacity="0.2" stroke-width="3.76801"/>
<path d="M45.7668 576.427C43.7999 576.427 42.0929 576.133 40.646 575.545C39.1991 574.957 38.08 574.132 37.2887 573.07C36.4975 571.985 36.1018 570.718 36.1018 569.272C36.1018 567.825 36.4861 566.604 37.2548 565.609C38.0235 564.614 39.1313 563.857 40.5782 563.337C42.0251 562.817 43.7546 562.557 45.7668 562.557C47.7789 562.557 49.5084 562.817 50.9553 563.337C52.4248 563.857 53.5439 564.626 54.3126 565.643C55.1039 566.638 55.4995 567.847 55.4995 569.272C55.4995 570.718 55.0926 571.985 54.2787 573.07C53.4874 574.132 52.357 574.957 50.8875 575.545C49.4406 576.133 47.7337 576.427 45.7668 576.427ZM45.7668 572.968C47.3945 572.968 48.6832 572.629 49.6327 571.951C50.5823 571.272 51.057 570.334 51.057 569.136C51.057 567.96 50.5823 567.033 49.6327 566.355C48.6832 565.677 47.3945 565.338 45.7668 565.338C44.139 565.338 42.8616 565.677 41.9347 566.355C41.0078 567.033 40.5443 567.96 40.5443 569.136C40.5443 570.334 41.0078 571.272 41.9347 571.951C42.8616 572.629 44.139 572.968 45.7668 572.968ZM45.7668 564.863C43.9355 564.863 42.3642 564.626 41.053 564.151C39.7417 563.653 38.7243 562.941 38.0009 562.014C37.3 561.065 36.9496 559.934 36.9496 558.623C36.9496 557.267 37.3113 556.102 38.0348 555.13C38.7809 554.135 39.8208 553.367 41.1547 552.824C42.4886 552.282 44.0259 552.01 45.7668 552.01C47.5302 552.01 49.0788 552.282 50.4127 552.824C51.7466 553.367 52.7866 554.135 53.5326 555.13C54.2787 556.102 54.6517 557.267 54.6517 558.623C54.6517 559.934 54.29 561.065 53.5665 562.014C52.8657 562.941 51.8483 563.653 50.5145 564.151C49.1806 564.626 47.598 564.863 45.7668 564.863ZM45.7668 562.15C47.1685 562.15 48.2763 561.856 49.0901 561.268C49.904 560.658 50.311 559.844 50.311 558.827C50.311 557.764 49.8927 556.939 49.0562 556.351C48.2197 555.763 47.1232 555.469 45.7668 555.469C44.4103 555.469 43.3251 555.763 42.5112 556.351C41.6973 556.939 41.2904 557.764 41.2904 558.827C41.2904 559.844 41.686 560.658 42.4773 561.268C43.2912 561.856 44.3877 562.15 45.7668 562.15ZM66.5665 576.427C64.6901 576.427 62.9945 575.952 61.4797 575.003C59.9876 574.053 58.812 572.674 57.9529 570.865C57.0937 569.034 56.6642 566.819 56.6642 564.219C56.6642 561.619 57.0937 559.414 57.9529 557.606C58.812 555.775 59.9876 554.384 61.4797 553.435C62.9945 552.485 64.6901 552.01 66.5665 552.01C68.4656 552.01 70.1612 552.485 71.6533 553.435C73.1455 554.384 74.3211 555.775 75.1802 557.606C76.0619 559.414 76.5028 561.619 76.5028 564.219C76.5028 566.819 76.0619 569.034 75.1802 570.865C74.3211 572.674 73.1455 574.053 71.6533 575.003C70.1612 575.952 68.4656 576.427 66.5665 576.427ZM66.5665 572.595C67.6743 572.595 68.6352 572.301 69.4491 571.713C70.2629 571.103 70.896 570.176 71.3481 568.932C71.8229 567.689 72.0603 566.118 72.0603 564.219C72.0603 562.297 71.8229 560.726 71.3481 559.505C70.896 558.261 70.2629 557.346 69.4491 556.758C68.6352 556.148 67.6743 555.842 66.5665 555.842C65.5039 555.842 64.5544 556.148 63.7179 556.758C62.904 557.346 62.2597 558.261 61.7849 559.505C61.3328 560.726 61.1067 562.297 61.1067 564.219C61.1067 566.118 61.3328 567.689 61.7849 568.932C62.2597 570.176 62.904 571.103 63.7179 571.713C64.5544 572.301 65.5039 572.595 66.5665 572.595ZM84.6666 571.849V556.588H88.2952V571.849H84.6666ZM78.6641 565.914V562.523H94.2976V565.914H78.6641Z" fill="black"/>
<path d="M316.709 7.15462C318.181 5.68312 320.566 5.68312 322.038 7.15462L356.227 41.3441C357.362 42.479 357.654 44.2083 356.953 45.6525L319.374 123.153L281.794 45.6525C281.093 44.2083 281.385 42.479 282.52 41.3441L316.709 7.15462Z" fill="url(#paint15_linear_5841_14449)"/>
<path d="M320.706 8.48681L354.895 42.6763C355.463 43.2437 355.608 44.1084 355.258 44.8305L319.374 118.835L283.489 44.8305C283.139 44.1084 283.284 43.2437 283.852 42.6763L318.041 8.48681C318.777 7.75106 319.97 7.75106 320.706 8.48681Z" stroke="white" stroke-opacity="0.2" stroke-width="3.76801"/>
<path d="M317.506 73.4854C315.276 73.4854 313.09 73.1689 310.95 72.5358C308.84 71.8727 307.062 70.9683 305.615 69.8229L308.147 65.256C309.292 66.1905 310.679 66.9441 312.307 67.5168C313.934 68.0896 315.638 68.3759 317.416 68.3759C319.526 68.3759 321.169 67.9539 322.345 67.1099C323.52 66.2357 324.108 65.0601 324.108 63.583C324.108 62.1361 323.565 60.9906 322.48 60.1466C321.395 59.3026 319.647 58.8806 317.235 58.8806H314.341V54.8563L323.385 44.0949L324.153 46.3105H307.152V41.3819H328.72V45.3157L319.677 56.0772L316.602 54.2685H318.366C322.254 54.2685 325.163 55.1427 327.092 56.891C329.052 58.6093 330.031 60.8248 330.031 63.5378C330.031 65.3163 329.579 66.9592 328.675 68.4664C327.771 69.9736 326.384 71.1944 324.515 72.1289C322.676 73.0332 320.34 73.4854 317.506 73.4854Z" fill="black"/>
<path d="M316.712 134.682C318.183 133.21 320.569 133.21 322.04 134.682L356.23 168.871C357.365 170.006 357.656 171.736 356.956 173.18L319.376 250.68L281.796 173.18C281.096 171.736 281.387 170.006 282.522 168.871L316.712 134.682Z" fill="url(#paint16_linear_5841_14449)"/>
<path d="M320.708 136.014L354.898 170.204C355.465 170.771 355.611 171.636 355.261 172.358L319.376 246.362L283.491 172.358C283.141 171.636 283.287 170.771 283.854 170.204L318.044 136.014C318.78 135.278 319.972 135.278 320.708 136.014Z" stroke="white" stroke-opacity="0.2" stroke-width="3.76801"/>
<path d="M312.754 200.561L325.822 171.26L327.359 173.883H309.408L312.211 171.034V179.264H306.74V168.909H331.338V172.843L319.039 200.561H312.754Z" fill="black"/>
<path d="M316.709 266.7C318.181 265.228 320.566 265.228 322.038 266.7L356.227 300.889C357.362 302.024 357.654 303.753 356.953 305.197L319.374 382.698L281.794 305.197C281.093 303.753 281.385 302.024 282.52 300.889L316.709 266.7Z" fill="url(#paint17_linear_5841_14449)"/>
<path d="M320.706 268.032L354.895 302.221C355.463 302.789 355.608 303.653 355.258 304.375L319.374 378.38L283.489 304.375C283.139 303.653 283.284 302.789 283.852 302.221L318.041 268.032C318.777 267.296 319.97 267.296 320.706 268.032Z" stroke="white" stroke-opacity="0.2" stroke-width="3.76801"/>
<path d="M291.676 321.035V318.085L301.104 309.132C301.895 308.386 302.483 307.73 302.867 307.165C303.252 306.6 303.5 306.08 303.613 305.605C303.749 305.108 303.817 304.644 303.817 304.215C303.817 303.13 303.444 302.293 302.698 301.705C301.952 301.095 300.855 300.79 299.408 300.79C298.255 300.79 297.204 300.993 296.254 301.4C295.327 301.807 294.525 302.429 293.847 303.265L290.761 300.891C291.688 299.648 292.931 298.687 294.491 298.009C296.073 297.308 297.837 296.958 299.781 296.958C301.499 296.958 302.992 297.24 304.258 297.805C305.546 298.348 306.53 299.128 307.208 300.145C307.909 301.163 308.259 302.372 308.259 303.774C308.259 304.543 308.158 305.311 307.954 306.08C307.751 306.826 307.366 307.617 306.801 308.454C306.236 309.29 305.411 310.229 304.325 311.268L296.22 318.967L295.305 317.305H309.175V321.035H291.676ZM319.926 321.374C318.05 321.374 316.354 320.9 314.839 319.95C313.347 319 312.171 317.621 311.312 315.813C310.453 313.981 310.024 311.766 310.024 309.166C310.024 306.566 310.453 304.362 311.312 302.553C312.171 300.722 313.347 299.331 314.839 298.382C316.354 297.432 318.05 296.958 319.926 296.958C321.825 296.958 323.521 297.432 325.013 298.382C326.505 299.331 327.681 300.722 328.54 302.553C329.421 304.362 329.862 306.566 329.862 309.166C329.862 311.766 329.421 313.981 328.54 315.813C327.681 317.621 326.505 319 325.013 319.95C323.521 320.9 321.825 321.374 319.926 321.374ZM319.926 317.542C321.034 317.542 321.995 317.248 322.809 316.66C323.622 316.05 324.256 315.123 324.708 313.88C325.182 312.636 325.42 311.065 325.42 309.166C325.42 307.244 325.182 305.673 324.708 304.452C324.256 303.209 323.622 302.293 322.809 301.705C321.995 301.095 321.034 300.79 319.926 300.79C318.863 300.79 317.914 301.095 317.077 301.705C316.264 302.293 315.619 303.209 315.144 304.452C314.692 305.673 314.466 307.244 314.466 309.166C314.466 311.065 314.692 312.636 315.144 313.88C315.619 315.123 316.264 316.05 317.077 316.66C317.914 317.248 318.863 317.542 319.926 317.542ZM338.026 316.796V301.536H341.655V316.796H338.026ZM332.024 310.862V307.47H347.657V310.862H332.024Z" fill="black"/>
<path d="M316.709 394.227C318.181 392.755 320.566 392.755 322.038 394.227L356.227 428.416C357.362 429.551 357.654 431.281 356.953 432.725L319.374 510.225L281.794 432.725C281.093 431.281 281.385 429.551 282.52 428.416L316.709 394.227Z" fill="url(#paint18_linear_5841_14449)"/>
<path d="M320.706 395.559L354.895 429.749C355.463 430.316 355.608 431.181 355.258 431.903L319.374 505.907L283.489 431.903C283.139 431.181 283.284 430.316 283.852 429.749L318.041 395.559C318.777 394.823 319.97 394.823 320.706 395.559Z" stroke="white" stroke-opacity="0.2" stroke-width="3.76801"/>
<path d="M301.993 448.902C299.845 448.902 298.002 448.449 296.465 447.545C294.928 446.618 293.752 445.284 292.938 443.544C292.124 441.803 291.717 439.655 291.717 437.1C291.717 434.387 292.203 432.093 293.176 430.216C294.17 428.34 295.538 426.915 297.279 425.943C299.042 424.971 301.066 424.485 303.349 424.485C304.547 424.485 305.689 424.609 306.774 424.858C307.882 425.107 308.82 425.491 309.589 426.011L307.961 429.334C307.306 428.905 306.593 428.611 305.825 428.453C305.079 428.272 304.287 428.181 303.451 428.181C301.213 428.181 299.438 428.871 298.127 430.25C296.815 431.629 296.16 433.664 296.16 436.354C296.16 436.784 296.171 437.292 296.194 437.88C296.216 438.445 296.295 439.022 296.431 439.61L295.075 438.118C295.482 437.191 296.035 436.422 296.736 435.812C297.46 435.179 298.308 434.704 299.28 434.387C300.274 434.071 301.348 433.912 302.501 433.912C304.061 433.912 305.452 434.218 306.673 434.828C307.893 435.416 308.866 436.264 309.589 437.372C310.312 438.457 310.674 439.734 310.674 441.204C310.674 442.764 310.29 444.12 309.521 445.273C308.752 446.426 307.713 447.319 306.401 447.952C305.09 448.585 303.62 448.902 301.993 448.902ZM301.755 445.443C302.66 445.443 303.462 445.284 304.163 444.968C304.864 444.629 305.406 444.154 305.791 443.544C306.198 442.933 306.401 442.221 306.401 441.407C306.401 440.164 305.972 439.18 305.113 438.457C304.253 437.733 303.1 437.372 301.654 437.372C300.704 437.372 299.868 437.552 299.144 437.914C298.443 438.253 297.878 438.728 297.448 439.338C297.041 439.949 296.838 440.65 296.838 441.441C296.838 442.164 297.03 442.831 297.415 443.442C297.799 444.052 298.353 444.538 299.076 444.9C299.822 445.262 300.715 445.443 301.755 445.443ZM321.185 448.902C319.309 448.902 317.613 448.427 316.099 447.477C314.606 446.528 313.431 445.149 312.572 443.34C311.713 441.509 311.283 439.293 311.283 436.693C311.283 434.093 311.713 431.889 312.572 430.08C313.431 428.249 314.606 426.859 316.099 425.909C317.613 424.96 319.309 424.485 321.185 424.485C323.084 424.485 324.78 424.96 326.272 425.909C327.764 426.859 328.94 428.249 329.799 430.08C330.681 431.889 331.122 434.093 331.122 436.693C331.122 439.293 330.681 441.509 329.799 443.34C328.94 445.149 327.764 446.528 326.272 447.477C324.78 448.427 323.084 448.902 321.185 448.902ZM321.185 445.07C322.293 445.07 323.254 444.776 324.068 444.188C324.882 443.577 325.515 442.65 325.967 441.407C326.442 440.164 326.679 438.592 326.679 436.693C326.679 434.772 326.442 433.2 325.967 431.979C325.515 430.736 324.882 429.82 324.068 429.233C323.254 428.622 322.293 428.317 321.185 428.317C320.123 428.317 319.173 428.622 318.337 429.233C317.523 429.82 316.878 430.736 316.404 431.979C315.952 433.2 315.725 434.772 315.725 436.693C315.725 438.592 315.952 440.164 316.404 441.407C316.878 442.65 317.523 443.577 318.337 444.188C319.173 444.776 320.123 445.07 321.185 445.07ZM339.285 444.323V429.063H342.914V444.323H339.285ZM333.283 438.389V434.998H348.916V438.389H333.283Z" fill="black"/>
<path d="M316.709 521.752C318.181 520.281 320.566 520.281 322.038 521.752L356.227 555.942C357.362 557.077 357.654 558.806 356.953 560.25L319.374 637.751L281.794 560.25C281.093 558.806 281.385 557.077 282.52 555.942L316.709 521.752Z" fill="url(#paint19_linear_5841_14449)"/>
<path d="M320.706 523.084L354.895 557.274C355.463 557.841 355.608 558.706 355.258 559.428L319.374 633.433L283.489 559.428C283.139 558.706 283.284 557.841 283.852 557.274L318.041 523.084C318.777 522.349 319.97 522.349 320.706 523.084Z" stroke="white" stroke-opacity="0.2" stroke-width="3.76801"/>
<path d="M294.633 574.088V556.943L296.136 558.5H290.729V555.625H298.062V574.088H294.633ZM308.107 574.352C306.648 574.352 305.329 573.982 304.151 573.244C302.99 572.505 302.076 571.433 301.408 570.026C300.74 568.602 300.406 566.878 300.406 564.856C300.406 562.834 300.74 561.12 301.408 559.713C302.076 558.289 302.99 557.207 304.151 556.469C305.329 555.73 306.648 555.361 308.107 555.361C309.584 555.361 310.903 555.73 312.064 556.469C313.224 557.207 314.139 558.289 314.807 559.713C315.493 561.12 315.836 562.834 315.836 564.856C315.836 566.878 315.493 568.602 314.807 570.026C314.139 571.433 313.224 572.505 312.064 573.244C310.903 573.982 309.584 574.352 308.107 574.352ZM308.107 571.371C308.969 571.371 309.716 571.143 310.349 570.685C310.982 570.211 311.475 569.49 311.826 568.523C312.196 567.555 312.38 566.333 312.38 564.856C312.38 563.362 312.196 562.14 311.826 561.19C311.475 560.223 310.982 559.511 310.349 559.054C309.716 558.579 308.969 558.341 308.107 558.341C307.281 558.341 306.542 558.579 305.892 559.054C305.259 559.511 304.758 560.223 304.388 561.19C304.037 562.14 303.861 563.362 303.861 564.856C303.861 566.333 304.037 567.555 304.388 568.523C304.758 569.49 305.259 570.211 305.892 570.685C306.542 571.143 307.281 571.371 308.107 571.371ZM324.536 574.352C323.076 574.352 321.758 573.982 320.579 573.244C319.419 572.505 318.504 571.433 317.836 570.026C317.168 568.602 316.834 566.878 316.834 564.856C316.834 562.834 317.168 561.12 317.836 559.713C318.504 558.289 319.419 557.207 320.579 556.469C321.758 555.73 323.076 555.361 324.536 555.361C326.013 555.361 327.332 555.73 328.492 556.469C329.653 557.207 330.567 558.289 331.235 559.713C331.921 561.12 332.264 562.834 332.264 564.856C332.264 566.878 331.921 568.602 331.235 570.026C330.567 571.433 329.653 572.505 328.492 573.244C327.332 573.982 326.013 574.352 324.536 574.352ZM324.536 571.371C325.397 571.371 326.145 571.143 326.778 570.685C327.411 570.211 327.903 569.49 328.255 568.523C328.624 567.555 328.809 566.333 328.809 564.856C328.809 563.362 328.624 562.14 328.255 561.19C327.903 560.223 327.411 559.511 326.778 559.054C326.145 558.579 325.397 558.341 324.536 558.341C323.709 558.341 322.971 558.579 322.32 559.054C321.687 559.511 321.186 560.223 320.817 561.19C320.465 562.14 320.289 563.362 320.289 564.856C320.289 566.333 320.465 567.555 320.817 568.523C321.186 569.49 321.687 570.211 322.32 570.685C322.971 571.143 323.709 571.371 324.536 571.371ZM338.614 570.791V558.922H341.436V570.791H338.614ZM333.945 566.175V563.537H346.104V566.175H333.945Z" fill="black"/>
<defs>
<linearGradient id="paint0_linear_5841_14449" x1="192.779" y1="64.7803" x2="192.779" y2="134.489" gradientUnits="userSpaceOnUse">
<stop stop-color="white"/>
<stop offset="1" stop-color="#999999"/>
</linearGradient>
<linearGradient id="paint1_linear_5841_14449" x1="192.779" y1="192.306" x2="192.779" y2="262.014" gradientUnits="userSpaceOnUse">
<stop stop-color="white"/>
<stop offset="1" stop-color="#999999"/>
</linearGradient>
<linearGradient id="paint2_linear_5841_14449" x1="192.779" y1="324.323" x2="192.779" y2="394.031" gradientUnits="userSpaceOnUse">
<stop stop-color="white"/>
<stop offset="1" stop-color="#999999"/>
</linearGradient>
<linearGradient id="paint3_linear_5841_14449" x1="192.779" y1="451.851" x2="192.779" y2="521.559" gradientUnits="userSpaceOnUse">
<stop stop-color="white"/>
<stop offset="1" stop-color="#999999"/>
</linearGradient>
<linearGradient id="paint4_linear_5841_14449" x1="192.779" y1="579.376" x2="192.779" y2="649.084" gradientUnits="userSpaceOnUse">
<stop stop-color="white"/>
<stop offset="1" stop-color="#999999"/>
</linearGradient>
<linearGradient id="paint5_linear_5841_14449" x1="448.779" y1="64.7803" x2="448.779" y2="134.489" gradientUnits="userSpaceOnUse">
<stop stop-color="white"/>
<stop offset="1" stop-color="#999999"/>
</linearGradient>
<linearGradient id="paint6_linear_5841_14449" x1="448.779" y1="192.306" x2="448.779" y2="262.014" gradientUnits="userSpaceOnUse">
<stop stop-color="white"/>
<stop offset="1" stop-color="#999999"/>
</linearGradient>
<linearGradient id="paint7_linear_5841_14449" x1="448.779" y1="324.323" x2="448.779" y2="394.031" gradientUnits="userSpaceOnUse">
<stop stop-color="white"/>
<stop offset="1" stop-color="#999999"/>
</linearGradient>
<linearGradient id="paint8_linear_5841_14449" x1="448.779" y1="451.851" x2="448.779" y2="521.559" gradientUnits="userSpaceOnUse">
<stop stop-color="white"/>
<stop offset="1" stop-color="#999999"/>
</linearGradient>
<linearGradient id="paint9_linear_5841_14449" x1="448.779" y1="579.376" x2="448.779" y2="649.084" gradientUnits="userSpaceOnUse">
<stop stop-color="white"/>
<stop offset="1" stop-color="#999999"/>
</linearGradient>
<linearGradient id="paint10_linear_5841_14449" x1="64.7805" y1="64.7803" x2="64.7805" y2="134.489" gradientUnits="userSpaceOnUse">
<stop stop-color="white"/>
<stop offset="1" stop-color="#999999"/>
</linearGradient>
<linearGradient id="paint11_linear_5841_14449" x1="64.7805" y1="192.304" x2="64.7805" y2="262.012" gradientUnits="userSpaceOnUse">
<stop stop-color="white"/>
<stop offset="1" stop-color="#999999"/>
</linearGradient>
<linearGradient id="paint12_linear_5841_14449" x1="64.7795" y1="324.323" x2="64.7795" y2="394.031" gradientUnits="userSpaceOnUse">
<stop stop-color="white"/>
<stop offset="1" stop-color="#999999"/>
</linearGradient>
<linearGradient id="paint13_linear_5841_14449" x1="64.7795" y1="451.851" x2="64.7795" y2="521.559" gradientUnits="userSpaceOnUse">
<stop stop-color="white"/>
<stop offset="1" stop-color="#999999"/>
</linearGradient>
<linearGradient id="paint14_linear_5841_14449" x1="64.7795" y1="579.376" x2="64.7795" y2="649.084" gradientUnits="userSpaceOnUse">
<stop stop-color="white"/>
<stop offset="1" stop-color="#999999"/>
</linearGradient>
<linearGradient id="paint15_linear_5841_14449" x1="320.33" y1="64.7784" x2="320.33" y2="134.487" gradientUnits="userSpaceOnUse">
<stop stop-color="white"/>
<stop offset="1" stop-color="#999999"/>
</linearGradient>
<linearGradient id="paint16_linear_5841_14449" x1="320.333" y1="192.306" x2="320.333" y2="262.014" gradientUnits="userSpaceOnUse">
<stop stop-color="white"/>
<stop offset="1" stop-color="#999999"/>
</linearGradient>
<linearGradient id="paint17_linear_5841_14449" x1="320.33" y1="324.323" x2="320.33" y2="394.031" gradientUnits="userSpaceOnUse">
<stop stop-color="white"/>
<stop offset="1" stop-color="#999999"/>
</linearGradient>
<linearGradient id="paint18_linear_5841_14449" x1="320.33" y1="451.851" x2="320.33" y2="521.559" gradientUnits="userSpaceOnUse">
<stop stop-color="white"/>
<stop offset="1" stop-color="#999999"/>
</linearGradient>
<linearGradient id="paint19_linear_5841_14449" x1="320.33" y1="579.376" x2="320.33" y2="649.084" gradientUnits="userSpaceOnUse">
<stop stop-color="white"/>
<stop offset="1" stop-color="#999999"/>
</linearGradient>
</defs>
</svg>
